<?xml version="1.0" encoding="UTF-8"?>
<svg id="Layer_2" data-name="Layer 2" xmlns="http://www.w3.org/2000/svg" viewBox="0 0 315.05 961.18">
  <defs>
    <style>
      .cls-1, .cls-2 {
        stroke-width: 0px;
      }

      .cls-2 {
        fill: #fff;
      }
    </style>
  </defs>
  <g id="Layer_1-2" data-name="Layer 1">
    <g>
      <path class="cls-1" d="m106,896.18v.45c1.31-.64.66-.54,0-.45ZM170.96,225.36c-.09-2.54-.66-5.05-.95-7.58-.29-2.54.57-5.15-.93-7.63-.51-.86-.08-2.28-.08-3.45-1.91-1.36-4.05-1.6-6.35-1.56-5.46.12-10.93.04-16.29.04-.27-.59-.34-1-.26-1.29l-1.16-.16c-.16,1.33-.66,2.62-.93,3.94-2.2,10.88-2.08,21.88-2.06,32.88h1.97c.17-1.19.15-1.67.33-2.06.08-.19.54-.28.84-.3,8.13-.43,16.27-.84,24.26-1.25.32.43.56.82.66,1.15l2.97-.28c-.98-4.34-1.87-8.31-2.02-12.45Zm40.04-166.17h0s.01,0,.01,0h-.01Zm1-18.05c0,.13-.01.27-.01.37.01-.01.01-.02.01-.02.02-.13.03-.23,0-.35Zm1.39,19.42c.27.31.27.45.24.5.05-.03.19-.2.29-.3-.18-.08-.36-.15-.53-.2Zm1.52,19.82c.15,0,.42-.06.66-.22-.2.07-.42.14-.66.22Zm7.19-17.37c.03.73.06,1.46.1,2.19.13,0,.26-.01.4-.01-.34-.73-.44-1.46-.5-2.18Zm4.75-27.39c-1.04,2.04-2.29,1.69-3.56,1.18,1.3.57,2.56.97,3.6-1.11-.01-.02-.03-.05-.04-.07Zm-1.64,28.11c.11.15.23.29.35.45h.27c-.36-.22-.52-.35-.62-.45Zm1.02.67s-.07.07-.11.12c.51.35.53.51.5.54.05,0,.19-.19.3-.3-.27-.14-.5-.26-.69-.36Zm.98-4.66c.12.15.23.29.35.44h.22c-.29-.15-.44-.29-.57-.44Zm-2,3.99c.11.15.23.29.35.45h.27c-.36-.22-.52-.35-.62-.45Zm-119.21,832.45v.45c1.31-.64.66-.54,0-.45ZM211,59.19h0s.01,0,.01,0h-.01Z"/>
      <path class="cls-1" d="m137,11.18c-.33.33-.67.67-1,1,.33-.33.67-.67,1-1Z"/>
      <path class="cls-1" d="m136,12.62c-.2.15-.39.31-.59.46-.06-.21-.23-.56-.17-.61.21-.16.5-.21.76-.3,0,.15,0,.3,0,.45Z"/>
      <path class="cls-1" d="m227.56,27.18c-.15-.2-.31-.39-.46-.59.21-.06.56-.23.61-.17.16.21.21.5.3.76-.15,0-.3,0-.45,0Z"/>
      <path class="cls-2" d="m112.08,311.92c-3.66-.68-6.19.22-8.21,2.43,3.05-.9,5.63-1.67,8.12-3.98.01.31.02.61.03.92.98-.13,1.96-.26,2.95-.39-.02-.22-.04-.45-.06-.67-.97.05-1.94.09-2.83,1.68Zm7.93-10.49v.5h2v-.5h-2Z"/>
      <path class="cls-2" d="m150.09,170.75c-.14.72-.14,1.57-.47,2.27-1.66,3.46-1.99,7.23-2.55,10.92-.38,2.51-.07,5.05-.95,7.61-.81,2.35.41,5.07-1.01,7.6-.64,1.14.02,2.95-.15,4.43-.16,1.38-.68,2.72-.95,4.09-2.25,11.12-2.07,22.39-2.06,33.65,0,1.64-.76,3.28-1.26,5.31-1.02-2.63-1.99-4.74-2.66-6.94-1.72-5.62-3.53-11.22-5.04-16.91-1.48-5.58-3.28-11.04-4.15-16.81-.51-3.38-1.08-6.83-1.88-10.18-1.04-4.35-1.3-8.83-2.16-13.13-1.28-6.42-.19-12.74-1.01-20.05,1.12,1.03,1.61,1.47,2.08,1.93.6.58,1.1,1.29,1.78,1.74,1.86,1.24,2.35,3.76,5.12,4.39,1.97.44,3.42,2.85,5.35,3.94.66.37,2.04.58,2.9.47,2.06-.26,3.33.75,4.79,1.99-.94-2.94-.45-6.43-3.69-8.24-1.23-.68-.93-2.34-2.68-2.99-1.57-.58.47-1.71,1.05-2.68.35.7.91,1.93.96,1.91,2.25-.9,2.28,2.37,4.09,2.14.55,2.36,3,2.29,4.56,3.55Z"/>
      <path class="cls-2" d="m171.36,175.59c4.98-5.59,9.69-10.87,14.48-16.24.05.92.14,2.01.15,3.1.02,2.5,0,5,0,7.49v4.5c0,1.5.1,3.01-.03,4.49-.13,1.56.72,3.33-.86,4.63,1.44,1.25-.46,2.34-.18,3.63.3,1.44.37,3.06.02,4.47-1.44,5.66-1.72,11.54-3.27,17.14-.26.93,1.09,2.36-.68,2.87.45,1.41-.68,2.39-.95,3.59-.25,1.11.08,2.34-.09,3.48-.18,1.22-.72,2.38-.95,3.59-.86,4.45-2.66,8.66-3.11,13.23-.12,1.26-1.42,2.4-2.5,4.11-1.13-5.09-2.27-9.6-2.44-14.33-.09-2.54-.66-5.05-.95-7.58-.29-2.53.57-5.15-.93-7.63-.52-.86-.08-2.28-.08-3.45-1.91-1.36-4.05-1.6-6.36-1.56-5.46.11-10.93.04-16.28.04-1.27-2.72,1.94-1.63,2.15-2.99,1.56,2.58,3.01-.57,4.7-.11,1.71.46,3.64.1,5.47.1h9.46c-.31-1.21-.59-2.19-.8-3.18-.16-.78-.28-1.57-.33-2.36-.35-5.52-.53-11.06-1.06-16.57-.32-3.26-1.91-6.18-3.55-9-.15-.27-.26-.56-.39-.84,1.24-3.06,4.47-3.89,6.68-6.09,1.18,2.19,3.55,3.81,1.46,6.84-.52.76.67,2.69,1.22,4.61Z"/>
      <path class="cls-2" d="m124,115.5c0,2.06.09,3.35-.02,4.62-.32,3.6,1.68,6.2,3.41,9.09,2.61,4.39,7.39,6.84,9.61,11.47,4.31,2.83,8.63,5.67,12.94,8.5.66.43,1.33.85,2.47,1.58-7.93,3.92-12.7,10.52-17.15,17.42-.31-.06-.72,0-.91-.19-1.91-1.85-4.11-3.52-5.59-5.68-2.82-4.09-6.39-7.75-7.84-12.7-.08-.28-.46-.47-.68-.71-1.22-1.33,2.16-2.42.23-3.74-1.44-.99-1.39-2.39-1.5-3.89-.13-1.71-.71-3.37-.94-5.08-.72-5.35,1.64-11.84,5.98-20.68Z"/>
      <path class="cls-2" d="m185.56,137.12c.49.65,1.43,1.33,1.37,1.92-.31,3.2.73,6.4-.74,9.66-.78,1.72-.26,4.03-1.15,6.01-1.09,2.43-1.95,4.91-3.9,6.89-1.34,1.35-2.29,3.07-3.59,4.47-1.07,1.15-1.94,2.94-4.14,1.91-2.16-6.78-8.52-15.19-15.62-16.16,2.23-1.86,4.26-3.55,6.31-5.23.23-.19.55-.28.83-.41,1.48-.7,2.67.95,4.32.39,1.22-.41,2.5-.94,4.1-.7,2.32.34,4.37-1.3,6.11-2.74,2.17-1.8,4.04-3.95,6.1-6.01Z"/>
      <path class="cls-2" d="m85.84,309.18c-3.8,1.75-4.52,5.26-5.76,8.19-.78,1.85-1.49,3.85-1.12,6.04.18,1.06.32,2.22-.75,3.19-.38.35-.34,1.84.06,2.21,1.22,1.15.56,2.48.73,3.72.35,2.68.41,5.44,1.08,8.04.62,2.39,2.76,3.89,4.41,5.66.22.24-.07.96-.16,1.82,1.66.48,3.68,1.06,5.81,1.67-.19.48-.28,1.23-.54,1.29-3.18.78-6.38,1.46-9.58,2.16-1.52.33-3.04.62-4.6.94-.47-2.75-.59-5.67-1.53-8.3-.9-2.53-.81-5.19-1.75-7.74-.75-2.05-.29-4.61-.11-6.92.17-2.2-.72-4.49.87-6.63.56-.75.05-2.26.09-3.42.18-4.98,2.63-8.81,6.42-11.74,1.2-.93,2.93-1.75,4.59-.23.34.31,1.2.04,1.81.04Zm-6.39,34.87c-1.18,1.83.15,2.89.53,4.15.44,1.47,1.14,1.2,1.87.61-.76-1.52-1.5-2.99-2.39-4.76Z"/>
      <path class="cls-2" d="m233.6,218.28c.45.83.93,1.47,1.16,2.19.89,2.77.23,3.62-2.79,4.75-2.97,1.11-6.09,1.32-9.13,2-3.05.69-6.22.62-9.22,1.74-1.31.49-2.92.12-4.39.24-1.34.11-2.66.37-4.31.62.86-2.21,1.56-4.53,2.66-6.63.77-1.48,2.24-1.95,4.1-2.09,5.97-.43,12.01-.53,17.74-2.75,1.14-.44,2.6-.06,4.18-.06Z"/>
      <path class="cls-2" d="m209.13,305.56c2.04,1,3.66,2.49,5.83,3.06.88.23,1.96.65,2.68.34,2.88-1.23,5.09-3.4,6.25-6.27.75-1.86.85-4,1.1-6.04.3-2.53,1.51-4.91,1.06-7.59-.42-2.47-1.11-4.85-1.8-7.25-.84-2.95-2.7-4.75-5.55-6.15,2.78-1.17,4.75-.04,6.5,1.28,1.68,1.27,2.69,3.04,2.86,5.3.14,1.88.76,3.72.92,5.59.17,1.99.12,4,.02,6-.25,5.23-1.44,10.27-2.96,15.27-.71,2.34-2.79,3.25-4.54,3.94-3.82,1.53-8.81-.89-10.85-4.7-.5-.93-1.01-1.85-1.52-2.77Z"/>
      <path class="cls-2" d="m226.89,35.69c-1.04,2.08-2.3,1.68-3.6,1.11,1.27.51,2.52.86,3.56-1.18.01.02.03.05.04.07Z"/>
      <path class="cls-2" d="m143.92,240.55c.17-1.19.15-1.67.32-2.06.09-.19.54-.28.84-.3,8.14-.43,16.27-.84,24.26-1.25.87,1.18,1.16,2.06-.43,2.22-1.15.12-2.32.02-3.48.02-3.64,0-7.3-.17-10.93.05-3.34.2-6.65.81-10.59,1.32Z"/>
      <path class="cls-2" d="m146.19,242.02c7.65-.04,15.14-2.51,22.81-1.83.29.03.57.22.91.36v1.47h-23.72Z"/>
      <path class="cls-2" d="m89.48,341.08h-2.32v-8.48c1.9,2.92-.53,6.05,2.32,8.48Z"/>
      <path class="cls-2" d="m109.81,889.18c-.9.34-2.1.81-3.31,1.27l-.35-.84c.5-.2,1.14-.27,1.47-.63.37-.41.47-1.07.9-2.16.47.86.82,1.51,1.28,2.36Z"/>
      <path class="cls-2" d="m104.13,909.42h4.56c.08.19.35.52.27.74-.13.38-.57,1.01-.69.97-1.13-.38-2.21-.88-4.14-1.71Z"/>
      <path class="cls-2" d="m54.05,360.2c-2.86,0-1.93-1.56-1.93-3.59.84,1.56,1.29,2.39,1.93,3.59Z"/>
      <path class="cls-2" d="m59.18,359.03v-3.65c.21-.01.41-.03.62-.04.08,1.21.16,2.41.24,3.62-.29.02-.57.05-.86.07Z"/>
      <path class="cls-2" d="m48.35,355.26c.22,1.14,1.7,2.96-1.77,2.9.75-.78,1.17-1.09,1.4-1.5.23-.41.26-.93.37-1.41Z"/>
      <path class="cls-2" d="m42.26,359.18v-3.91c.15,0,.3,0,.45-.01v3.91c-.15,0-.3.01-.45.02Z"/>
      <path class="cls-2" d="m197.18,868.34h3.65c.01.21.03.41.04.62-1.23.08-2.45.17-3.68.25,0-.29,0-.58-.01-.87Z"/>
      <path class="cls-2" d="m223.12,65.17c-.18.01-.35.01-.52.02-.14,0-.27.01-.4.01-.04-.73-.07-1.46-.1-2.19-.02-.24-.03-.49-.04-.73.22-.02.45-.04.67-.06.13.98.26,1.96.39,2.95Z"/>
      <path class="cls-2" d="m56.84,356.35v2.66c-.17.02-.35.03-.52.05-.12-.88-.25-1.77-.37-2.65.3-.02.6-.04.89-.05Z"/>
      <path class="cls-2" d="m200.83,886.01h-2.66c-.02-.17-.03-.35-.05-.52.88-.12,1.77-.25,2.65-.37.02.3.03.6.05.89Z"/>
      <path class="cls-2" d="m108,921.43h3v.5h-3v-.5Z"/>
      <path class="cls-2" d="m105,899.43h3v.5h-3v-.5Z"/>
      <path class="cls-2" d="m246.95,332.99c.11,2.51.06,3.71-1.88,2.9.52-.8.97-1.51,1.88-2.9Z"/>
      <path class="cls-2" d="m250.97,335.64c-.2.23-.36.54-.62.66-.42.19-.9.26-1.35.38.1-.44.08-1.02.35-1.27.26-.23.84-.11,1.27-.09.12,0,.23.21.34.32Z"/>
      <path class="cls-2" d="m196.19,906.35h2.66c.01.17.03.35.04.52-.89.12-1.78.24-2.68.36,0-.29-.01-.59-.02-.88Z"/>
      <path class="cls-2" d="m237.8,330.14c-.37-.23-.77-.37-.76-.49.03-.44.19-.87.31-1.31.22.13.62.24.63.38.03.44-.09.88-.17,1.43Z"/>
      <path class="cls-2" d="m241.66,331.81c.15,1.06.25,1.71.34,2.37-.33-.39-.72-.74-.97-1.17-.08-.13.24-.49.63-1.19Z"/>
      <path class="cls-2" d="m92,341.93h-2v-.5h2v.5Z"/>
      <path class="cls-2" d="m89.53,348.38c-.07-.16-.22-.51-.37-.86.27-.11.59-.37.82-.31.32.09.58.41.87.62-.27.11-.55.23-1.31.55Z"/>
      <path class="cls-1" d="m165.01,31.18c.15,0,.28,0,.41,0-.14-.02-.28-.04-.41,0Z"/>
      <path class="cls-1" d="m187.19,53.15s-.03.01-.05.01c.03,0,.07-.01.11-.01h-.06Z"/>
      <path class="cls-1" d="m165.42,31.19c-.13,0-.26,0-.41,0,.13-.03.27-.01.41,0Z"/>
      <path class="cls-2" d="m43,359.18h2c-.41.33-.83.67-1.24,1-.25-.33-.5-.67-.76-1Z"/>
      <path class="cls-2" d="m212,41.49s0,0-.01.02c0-.1.01-.24.01-.37.03.12.02.22,0,.35Z"/>
      <path class="cls-1" d="m315.02,322.27c.07-2.76-1.71-5.25-1.06-8.09.08-.34-.52-.77-.65-1.21-1.17-4-2.88-7.83-4.18-11.76-3.47-10.56-7.2-21.06-10.16-31.8-1.4-5.09-3.84-9.81-6.63-14.22-2.13-3.37-3.62-6.56-3.4-10.65.21-4.05-1.52-7.74-4.01-10.77-1.97-2.39-3.31-4.7-2.93-7.82.42-3.47-1-6.5-2.3-9.55-.48-1.13-1.44-2.14-1.64-3.3-.86-4.94-2.87-9.46-4.63-14.1-.99-2.62-2.4-5.03-3.34-7.61-1.48-4.05-3.08-8.07-4.44-12.15-1.38-4.12-4.04-7.65-5.08-11.91-.28-1.15-1.32-2.13-2.07-3.14-2.33-3.16-6.31-3.31-9.48-4.88-3.71-1.82-7.65-3.22-11.47-4.87-3.8-1.64-7.74-3.02-11.54-4.72-1.97-.88-3.9-1.84-5.9-2.67-4.69-1.94-9.16-4.46-13.62-6.93-3.82-2.12-7-5.08-10.26-7.98-1.78-1.58-3.77-2.69-4.2-5.07,1.42-2.55,2.1-5.39,3.5-7.67,1.72-2.8,3-6.02,5.81-8.17,1.18-.91,2.17-2.44,2.59-3.87,1.27-4.33,3.55-8.39,3.15-12.85,2.97-1.07,4.4-2.73,3.9-5.64-.04-.23-.36-.41-.53-.59-.34.28-.68.56-1.6,1.32.26-1.18.25-2.11.52-2.2,2.83-.95,4.15-3.63,6.24-5.41.38-.32.27-1.18-.7-1.61h-.01c-.55-.6-.01-1.4.59-2.29.82,1.17.51,1.79.08,2.07,1.13-.39,1.62-.68,2.43-1.15,0,1.17-.03,2.1.01,3.04.05,1.02.17,2.04.28,3.34.68-.67,1.17-.96,1.36-1.39,1.28-2.86,1.53-4.93,1.37-9.09-.05-1.25.12-2.5.18-3.61,3.14-.62.81,2.45,2.8,2.87,0-1.68.13-3.31-.04-4.91-.14-1.38-.62-2.72-1.36-4.07-.14,0-.27.01-.4.01l-.14-2.92c.22-.02.45-.04.67-.06.13.98.26,1.96.39,2.95-.18.01-.35.01-.52.02,2.69,1.07,3.82,2.78,3.43,5.38-.02.14.37.34.66.59.23-1.02.43-1.97.82-3.72.41,1.8.63,2.73.84,3.66.53-.54.6-.99.65-1.45.36-3.23-.44-6.34-1.22-9.47h-.22c-.12-.15-.23-.29-.35-.44-.04-.05-.08-.1-.12-.15.21-.06.56-.23.61-.17.16.21.21.5.3.76h-.22c2.03.68,1.49,2.91,2.95,4,.1-.52.38-1.05.24-1.41-1.72-4.56-1.99-9.27-2.12-14.1-.05-1.77-.64-3.93-2.26-5.5-1.19-1.15-1.94-2.76-3.22-4.66,3.38-.08,5.07-1.96,6.63-4v-4.97c.01-1.36-.82-2-2-2.36.1.6.09,1.23.31,1.78,1.24,3.19,1.06,4.13-1.37,6.48-.03.06-.06.12-.09.18.01.02.03.05.04.07-1.04,2.08-2.3,1.68-3.6,1.11,1.27.51,2.52.86,3.56-1.18-1.62-3.07-3.61-5.22-6.26-6.08,2.67.83,4.69,2.95,6.35,5.9-.23-4.45-3.03-6.78-8.92-7.69.33-.37.64-.72,1.16-1.3-.75-.11-1.39-.07-1.93-.29-1.55-.66-3.45-.96-4.22-2.7-1.01-2.28-2.12-4.44-3.59-6.51-1.5-2.12-4.2-3.01-5.12-5.76-.32-.95-2.25-1.48-3.54-1.98-1.61-.62-1.62.94-2.15,1.8-.11.18-.65.25-.9.15-1.86-.73-3.88-1.24-5.5-2.34-5.82-3.96-11.96-6.87-19.2-6.62-1.95.06-3.51-1.72-5.55-1.05-3.61-2.3-7.03-.62-10.45.52-3.84,1.27-6.32,4.32-9.06,7.03-.16.16-.45.2-.76.33-.15-.97-.29-1.89-.4-2.54-1.71.59-3.52.83-4.8,1.77-1.6,1.16-4.41.19-5.01,2.92,2.29-.65,4.58-1.31,7.06-2.01-.08,2.04-.99,2.72-2.4,3.02-6.56,1.38-11.62,4.96-14.89,10.8-1.39,2.49-3.18,4.17-5.78,5.23-1.58.65-3.01,1.68-2.98,4.29,2.14-1.72,3.35-3.94,6.31-3.89-.46,1.75-1.13,3.39-1.24,5.07-.08,1.24-.95,1.64-1.48,2.41-.26.38-.69,1.01-.55,1.22,1.32,2.13-.68,3.76-.77,6.16,1.31-.81,2.37-1.46,3.72-2.29,0,3.89-.1,7.53.04,11.16.08,2.21-.85,4.62.96,6.59-.46,2.94,1.21,6.22-1.84,8.81-.7.6-1.45,2.27-1.23,3.95.5,4-.07,8.02.87,12.12.72,3.13,1.24,6.37,3.31,8.6,2.44,2.62,1.69,5.43,1.88,8.27-1.41.9-.84,2.33-1,3.58-.54,4.11-1.03,8.25-4.64,11.08-.51.4-1.02.89-1.33,1.45-1.05,1.88-2.6,3.74-2.88,5.76-.42,2.99-3.71,2.43-4.58,4.55-.06.14-.26.22-.34.36-3.37,5.49-8.13,9.28-13.94,11.99-5.59,2.6-11.12,5.31-16.71,7.91-7.13,3.32-14.26,6.64-21.65,9.28-4.22,1.5-8.33,3.43-13.03,3.69-1.94.11-3.87,1.69-4.97,3.97-1.15,2.38-2.07,4.8-2.93,7.29-1.6,4.66-3.3,9.29-4.86,13.97-2.21,6.6-4.75,13.09-6.19,19.94-.92,4.38-2.55,8.61-3.69,12.95-.94,3.6-1.95,7.18-3.27,10.65-1.38,3.62-2.16,7.45-3.57,11.01-1.65,4.18-3.02,8.43-4.38,12.68-1.79,5.6-3.26,11.31-5.06,16.9-1.37,4.25-3.07,8.39-4.57,12.6-.62,1.75-.91,3.62-2.13,5.12-1.14,1.4-.63,3.59-2.27,4.76v56c.64.47,1.63.81,1.86,1.44,1.56,4.18,5.56,5.54,8.89,7.45,2.21,1.26,5.15,1.19,7.58,2.18,2.51,1.03,5.37.36,7.7,1.93,5.5-.23,10.7,1.78,16.15,2.19,2.66.2,5.64.08,8.02,1.01,2.32.9,4.65.08,6.61.91,2.4,1.03,4.74.81,7.14.88,1.62.05,3.26.01,4.88.01.84,4.79-1.78,8.46-2.86,12.48-1.11,4.12-2.46,8.18-3.71,12.27,2.55,1.94,1.93,4.54,1.39,7.1-.88,4.14-1.85,8.26-2.62,12.41-.49,2.67-.09,5.68-1.22,7.99-.94,1.93-.3,3.8-1.09,5.56-1.09,2.46-1.14,5.19-1.68,7.79-.55,2.64-.38,5.49-1.25,7.99-1.52,4.36-1.57,8.95-2.71,13.36-.75,2.92-.23,6.22-1.24,9.01-.82,2.26.07,4.89-1.06,6.5-1.8,2.59-.14,5.31-1.39,7.98-1.07,2.28-.22,5.46-.22,8.65,2.54,1.1,5.21,2.26,7.83,3.4,0,5.78.19,11.46-.05,17.11-.23,5.59,1.27,10.99,1.18,16.59-.1,6.18-.8,12.39.73,18.61.81,3.3.01,6.97.18,10.46.16,3.37.66,6.72.95,10.09.39,4.35-.86,8.84,1.01,13.08-.58,5.25,1.04,10.39.92,15.58-.13,5.26,1.85,10.32,1.09,15.59-.04.31-.1.79.08.94,1.82,1.65.93,3.81.8,5.63-.14,2.05,1.51,4,.5,5.83-.97,1.75,1.75,3.54-.39,5.02.52,5.35-1.08,10.81.97,16.09.56,1.44.82,3.03,1.01,4.58.41,3.52.67,7.05,1.04,10.58.06.6.42,1.17.51,1.78.13.89.28,1.81.19,2.7-.1.91-.61,1.78-.69,2.69-.39,4.36-.7,8.72-1.03,13.08-.02.33.05.68-.02.99-1.07,4.79-.79,4.75-.08,9.2.48,2.98,1.53,5.89,1.18,9.07-.31,2.87-.7,5.75-.91,8.59-.3,4.31-.52,8.69.67,13.11,1.04,3.83-.35,8.04,1.05,12.08.67,1.94.38,4.34.04,6.45-.38,2.4,1.04,4.33,1.12,6.59.16,4.37.62,8.73.95,13.09.01.16-.07.39.01.49,1.66,2,.33,4.55,1.11,6.55.86,2.23.83,4.39.88,6.63.01.66-.28,1.6.05,1.95,1.33,1.4.77,3.06.98,4.63.22,1.71.76,3.38.95,5.09.41,3.85.26,7.82,1.17,11.54.64,2.58.16,5.3,1.03,7.55.89,2.3.16,4.61.94,6.61.87,2.23.83,4.39.88,6.63.01.67-.28,1.6.05,1.95,1.33,1.4.77,3.07.98,4.63.23,1.71.76,3.38.95,5.09.41,3.85.69,7.72,1.02,11.58.03.32-.07.79.1.95,1.79,1.66.53,3.77.9,5.64.36,1.85.77,3.71.98,5.58.41,3.69-.02,7.65,1.21,11.02,1.43,3.91.23,7.89,1.62,11.8,1.08,3.04.24,6.64,1.05,10.05,1.11,4.63,1.28,5.25,6.22,5.37.28,0,.55.25.92.43,0,2.28.13,4.61-.04,6.92-.16,2.2,0,4.81-1.12,6.48-1.42,2.12-.55,4.32-1.42,6.45-1.65,4.04-4.06,7.64-5.95,11.52-.94,1.94-2.11,3.72-2.75,5.87-1.09,3.62-2.24,7.24-5.55,9.74-2.1,1.59-3.87,3.66-5.67,5.62-.96,1.03-2.05,2.18-2.42,3.47-.68,2.36-.88,4.85-1.29,7.32.01.47.03.95.04,1.43,1.12,2.12,2.29,4.21,3.21,6.42,1.19.79,2.36,1.59,3.49,2.46.02.23.03.47.04.71,1.54.21,3.07.51,4.51,1.15h11.1c4.74-.8,9.46-1.88,13.82-3.96,2.94-1.4,5.6-3.23,8.13-5.24,4.36-4.78,8.11-10.14,12.39-15.02.13-.22.28-.44.41-.65,1.99-3.58,3.86-7.18,7-9.72,1.29-1.53,2.69-2.99,4.13-4.37,0-.08,0-.15,0-.23.21-4.99-.98-9.49-3.49-13.58-1.27-2.08-1.66-4.07-1.61-6.35.06-3-.07-6,.03-8.99.11-3.25.08-6.43-2.48-9.16.76-.37,1.17-.52,1.53-.75,2.9-1.87,4.05-3.69,2.75-6.43-.8-1.67-.72-3.12-.78-4.67-.12-2.83.38-5.74-.12-8.48-1.19-6.52-.09-13.18-1.13-19.56-1.06-6.6-.62-13.09-.73-19.62-.2-12.49-.06-24.99-.06-37.48,0-4,.8-8.22-.22-11.94-1.09-3.98-.5-7.78-.73-11.64-.23-3.99.51-8.1-.16-11.98-1.81-10.52-.44-21.07-.82-31.59-.06-1.83-.2-3.68-1.13-5.04-3.32-4.85-2.16-9.68-.41-14.58.57-1.6,1.08-3.22,1.78-4.76,1.36-3.01,1.23-6.18-.48-8.69-1.62-2.37-1.85-4.69-1.83-7.27.02-2.84-.16-5.68.04-8.5.27-3.75.86-7.43,2.51-10.95.9-1.91,1.82-4.03,1.5-6.39-.23-1.64.03-3.34-.06-5-.21-3.73.56-7.23,1.75-10.77.84-2.52,1.2-5.31,1.15-7.98-.04-2.03.91-3.69,1.15-5.58.23-1.87-.36-3.67.77-5.69.98-1.73.4-4.27,1.04-6.52.93-3.36.76-7.02,1.18-10.54.18-1.54.66-3.05.97-4.59.27-1.38-.12-2.7.74-4.21,1.04-1.83-.43-4.5,1.26-6.45-.18-4.36,1.24-8.52,2.19-12.63,1.4-6.1,2.13-12.33,3.59-18.43.98-4.08,1.81-8.34,2.34-12.6.55-4.45,2-8.79,3.13-13.17,1.21-4.65,2.51-9.29,3.75-13.94.47-1.77.88-3.57,1.34-5.48.55.55,1.14.86,1.22,1.27.59,2.9,1.67,5.65,2.4,8.5.55,2.14.13,4.72,1.18,6.49,1.41,2.36.44,4.95,1.71,7.33,1.06,1.98.52,4.74,1.21,6.99,1.75,5.69,2.62,11.61,3.71,17.4,1.1,5.88,3.07,11.6,3.37,17.7.16,3.36,1.97,6.6,2,10.12,1.51,1.12.58,2.75.87,4.13.29,1.37.74,2.71.97,4.09.4,2.35.02,5.15,1.19,6.97,1.43,2.24-.33,5.01,1.83,6.78-.24,2.44.44,4.74.92,7.1.65,3.13.69,6.38,1.11,9.56.19,1.55.65,3.06.97,4.59.35,1.69.69,3.39,1,5.09.28,1.54.07,3,.82,4.66,1.06,2.37.81,5.31,1.19,8,.33,2.35.4,4.82,1.21,7,1.26,3.38,1.22,7.04,2.67,10.39.57,1.33.21,3.29-.27,4.79-.83,2.56-.87,4.9.03,7.47.52,1.47-.13,3.39.46,4.81.6,1.43.68,2.23.05,3.78-.86,2.12.05,4.64-1.01,7.08-.91,2.07.33,4.73-1.09,7.06-1.2,1.97-.71,4.56-1.97,6.68-.52.86-.51,2.52-.02,3.41,2.34,4.19.12,8.02-.62,11.98-.15.77-.34,1.53-.44,2.31-.35,2.86-.85,5.72-.96,8.59-.11,2.74-1.77,5.25-1.05,8.08-1.67,2.17-.24,4.94-1.14,7.02-.99,2.27-.33,4.52-.93,6.62-1.14,4.01-.31,8.17-1.12,12.06-.57,2.75-.55,5.42-.84,8.12-.24,2.2-1.21,4.26-1.03,6.6.17,2.2.6,4.56-.93,6.58-.08.11,0,.33-.01.49-.33,6.03-.61,12.06-1.03,18.08-.16,2.37-.64,4.72-.97,7.09-.32,2.36.79,4.92-.98,7.1-.16.2-.06.65-.01.98.66,4.76-1.18,9.34-1.07,14.08.04,1.69-.59,3.39-.94,5.08-.39,1.86.59,3.75-.87,5.68-.9,1.2.52,3.54-1.11,5.02-.16.15.12.73-.04.96-1.16,1.64,2.44,2.86.27,4.84-1,.91-1.34,2.72-1.35,4.42-.01,1.11-.82,2.37-1.6,3.28-2.98,3.47-6.09,6.83-9.16,10.22-3.47,3.83-5.59,8.39-5.96,13.46-.11,1.46-1.63,2.32-.76,4.4,1.28,3.05,3.46,5.25,5.18,7.85,2.32,3.51,5.56,6.14,8.78,8.65,1.57-1.11,3.13-2.45,4.9-3.4.97-.52,2.65-1.27,2.72,1.11,2.73,2.46,2.21,5.08,1.15,8.3-1,3.07-1.89,6.27-2.24,9.61-.51,5.03,1.81,8.69,4.97,11.96,1.24,1.28,2.54,2.51,3.87,3.73,3.17,1.81,6.22,3.98,9.42,6.46,8.26,6.41,17.4,7.09,27.55,7.12,2.63,0,8.14.51,11.01-1.33.04-.43.09-1.09.13-1.81,0-.55-.01-1.1-.02-1.65.03-.08.08-.14.11-.22,0-.2.01-.4.02-.59-.27-.01-.55-.02-.81-.02-.14-1.82.03-3.37-.43-4.7-1.6-4.55-3.61-8.96-6.7-12.71-3.52-4.27-6.09-9.13-9.04-13.76-1-1.58-1.46-3.08-.47-4.88.81-1.5.8-2.91-.41-4.45-1.06-1.36-1.21-3.19-1.15-5.02.13-4.16.63-8.45-.18-12.45-.48-2.42-.77-4.76-.72-7.13.05-2.46-.74-4.73-.99-7.1-.29-2.78-.07-5.62-.07-8.5,3.42-1.81,3.3-5.3,3.95-8.34.57-2.65.38-5.48,1.14-8.05.9-3.03,1.36-6.11,1.93-9.19.58-3.08.99-6.24,2.06-9.15,1.36-3.69,1.74-7.58,2.75-11.33,1.14-4.19,2.1-8.47,3.14-12.71.5-1.99.59-4.08,1.06-6.08.46-1.95,1.25-3.82,1.76-5.76.8-3.01,1.73-6.02,2.16-9.09.76-5.45,2.47-10.63,3.8-15.93,1.06-4.23,2.5-8.45,3.05-12.69.57-4.42,2.93-8.54,2.2-13.14,2.17-2.17.48-5.17,1.81-7.77,1.23-2.4.47-5.74,1.31-8.45.73-2.4.17-5,1.02-7.07,2.1-5.13,1.92-10.58,2.66-15.84.66-4.6,1.59-9.27,1.37-14.06-.09-2.01.61-4.33,1.17-6.44,1.35-5.06,2.9-10.07,2.65-15.39-.22-4.87-.02-9.7-.76-14.62-.72-4.7.44-9.69.77-14.55,1.57-1.45,1.19-3.42.91-5.07-.35-2.11,1.08-3.65,1.13-5.6.14-6.2-.21-12.38.81-18.61,1.05-6.41.13-13,.94-19.59,1.15-9.25.03-18.68.99-28.07.69-6.74.48-13.67-.56-20.6-1.12-7.39.2-15.04-1.14-22.56-.71-3.96.7-8.17-1.08-12.07v-19.3c3.42-.41,6.28-1.15,8.01-3.86-.06-2.42-.09-4.58-.88-6.81-.72-2.02-.11-4.33-.98-6.6-.81-2.12-.6-4.69-.94-7.06-.65-4.4-1.19-8.79-2.14-13.15-.44-1.99-.48-4.07-.86-6.11-.34-1.86-1.5-3.67-1.14-5.54.42-2.25-.95-4.02-1.11-6.09-.1-1.21-.75-2.38-.92-3.59-.19-1.3.27-2.79-.19-3.93-1.8-4.46-1.62-9.28-2.8-13.84-.67-2.61-1.5-5.28-1.05-8.07-1.8-1.41-.62-3.4-1.03-5.08-.4-1.68-1.14-3.24-1.05-5.09.07-1.35-.86-2.73-.84-4.09.01-1.53.67-3.04.89-4.59.11-.77.06-1.66-.22-2.39-.73-1.86-1.77-3.61-2.41-5.49-1.2-3.52-3.56-6.45-4.53-10.16-.54-2.03-1.12-4.21-1.66-6.26-.54-2.09-1.67-4.14-1.25-6.56.23-1.27-.6-2.7-.89-4.07-.28-1.38-.27-2.74-.71-4.19-.99-3.28-.98-6.86-1.39-10.41.86-.07,1.4-.28,1.8-.12,3.71,1.49,7.64,2.41,11.2,4.33,2.57,1.38,5.23,2.75,8.01,3.58,8.14,2.43,15.85,6.03,23.97,8.53,7.09,2.19,14.07,4.69,21.62,4.51,3.55-.08,6.64-1.76,9.48-3.59,2.3-1.49,3.09-4.26,4.02-6.78,1.23-3.33,2.29-6.71,3.61-10.01.88-2.22,2.58-4.31,2.42-7.01-.17-2.83-.09-5.67-.02-8.5Zm-105.78-238.79c.15-.11.34-.17.53-.23,0-.05-.01-.11-.01-.16.15-.11.29-.23.44-.35.5-2.13,1.2-3.96,2.14-6.44,1.28,3.52-.36,5.04-2.14,6.44-.07.29-.14.59-.2.89v-.45c-.07.03-.15.05-.23.07,0,.55-.18.69-.36.84-.06-.21-.23-.56-.17-.61Zm-4.91-67.11c.24.05.45.2.67.31-.11.11-.22.22-.35.36-.21-.12-.43-.24-.65-.36.11-.11.25-.33.33-.31Zm-117.17,316.24c1.9,2.92-.53,6.05,2.32,8.48h-2.32v-8.48Zm-.66-1.43c.11.11.33.25.31.33-.05.23-.2.45-.31.67-.11-.11-.22-.22-.35-.36.11-.2.23-.42.35-.64Zm-41,24l.36.36c-.12.21-.24.42-.36.64-.11-.11-.33-.25-.31-.33.05-.23.2-.45.31-.67Zm-.05,4l-.23-.23c-.07.06-.14.14-.22.23h-.19c-.48.54-.77.77-1.05,1-.25-.33-.51-.67-.76-1h-.74c.15,0,.3-.01.45-.02v-.6c-.45-1.09-.45-2.2-.45-3.29.15,0,.3-.01.45-.01v3.3c.07.21.17.41.29.62h1.81c.09-.1.19-.21.3-.34l-.11-.11c.2-.15.39-.31.58-.47-.17.22-.33.41-.47.58l.11.11c.52-.54.69-.41.67-.37-.12.22-.29.4-.44.6Zm1.13-1.02c.75-.78,1.17-1.08,1.4-1.49.22-.42.25-.93.37-1.41.22,1.15,1.7,2.96-1.77,2.9Zm5.54-1.55c.84,1.56,1.29,2.39,1.93,3.6-2.85-.01-1.93-1.57-1.93-3.6Zm4.72,2.4c-.18.01-.35.03-.53.05-.12-.89-.24-1.77-.37-2.65.3-.02.6-.04.9-.06v2.66Zm.66-3.83c-.11-.11-.22-.22-.35-.36.11-.2.23-.42.35-.64.11.11.33.25.31.33-.05.23-.2.45-.31.67Zm1,6c-.11-.22-.26-.44-.31-.67-.02-.08.2-.22.31-.33.11.22.26.44.31.67.02.08-.2.22-.31.33Zm.68-2.15v-3.65c.2-.02.41-.03.61-.04.08,1.2.16,2.41.24,3.62-.28.02-.57.05-.85.07Zm11.21-52.73c-2.26-.59-4.55-1.71-7.04-1.12-2.32.55-4.37-.69-6.56-1.01-2.18-.32-4.65.96-6.63-1.26,1.9-4.29,3.04-8.85,4.65-13.27.95-2.6,2.2-5.08,3.03-7.73.83-2.63,1.92-5.21,3.21-7.64,1.74-3.3,2.46-6.96,3.94-10.34.53-1.22.9-2.51,1.58-4.41,4.92,15.58,8.15,30.8,10.85,47.4-2.93-2.93-4.83-.04-7.03-.62Zm19.21,44.72c-3.18.78-6.38,1.46-9.58,2.16-1.51.33-3.04.62-4.59.94-.47-2.76-.59-5.67-1.53-8.3-.9-2.53-.81-5.19-1.75-7.74-.75-2.04-.29-4.6-.11-6.91.17-2.2-.72-4.49.87-6.64.56-.75.06-2.26.1-3.42.18-4.98,2.63-8.81,6.42-11.74,1.2-.93,2.93-1.75,4.6-.23.33.3,1.19.04,1.81.04-3.8,1.76-4.52,5.26-5.76,8.19-.78,1.85-1.49,3.86-1.12,6.04.18,1.06.32,2.22-.75,3.2-.38.35-.34,1.84.06,2.21,1.22,1.15.56,2.49.73,3.73.35,2.68.41,5.44,1.08,8.03.62,2.39,2.76,3.89,4.41,5.66.22.24-.07.96-.16,1.82,1.66.48,3.68,1.06,5.81,1.67-.19.48-.28,1.23-.54,1.29Zm-.07-2.63c-.07-.16-.22-.51-.37-.87.28-.11.59-.37.82-.31.32.09.58.41.86.63-.27.11-.55.23-1.31.55Zm2.47-6.46h-2v-.5h2v.5Zm10,610h-2v-.5h2v.5Zm5.63-62.95c.38-.4.47-1.07.9-2.16.47.86.82,1.51,1.28,2.37-.89.34-2.1.8-3.31,1.27-.11-.29-.23-.57-.34-.85.5-.2,1.14-.27,1.47-.63Zm-2.39,7.5c.21-.16.5-.21.76-.3.39-.33.74-.72,1.18-.97.13-.07.48.25,1.19.63-2.57.94-2.76,1.09-2.96,1.25-.06-.21-.23-.56-.17-.61Zm-.24,2.95h3v.5h-3v-.5Zm3.69,9.99c.08.19.35.52.28.74-.13.38-.57,1.01-.69.97-1.13-.38-2.21-.88-4.15-1.71h4.56Zm2.31,12.51h-3v-.5h3v.5Zm9.23-773.02c-1.22-1.34,2.16-2.43.23-3.75-1.45-.99-1.39-2.39-1.5-3.89-.14-1.71-.71-3.38-.94-5.08-.72-5.35,1.64-11.84,5.98-20.68,0,2.06.1,3.34-.02,4.61-.31,3.61,1.69,6.2,3.41,9.09,2.61,4.39,7.39,6.84,9.61,11.47,4.32,2.83,8.63,5.67,12.94,8.5.66.43,1.33.85,2.47,1.58-7.93,3.92-12.7,10.52-17.15,17.42-.31-.06-.73-.01-.91-.19-1.91-1.85-4.11-3.52-5.59-5.67-2.82-4.09-6.4-7.75-7.85-12.7-.08-.28-.46-.47-.68-.71Zm24.44,93.08c-.23-.05-.45-.2-.67-.31.11-.11.22-.22.36-.36.21.12.42.24.64.36-.11.11-.24.33-.33.31Zm25.23.03h-23.71c7.64-.04,15.13-2.51,22.81-1.83.29.03.57.22.9.36v1.47Zm15.03-54.82c.3,1.44.38,3.06.02,4.47-1.44,5.66-1.72,11.54-3.27,17.14-.26.93,1.09,2.36-.68,2.87.45,1.41-.68,2.4-.95,3.59-.24,1.12.08,2.34-.08,3.49-.18,1.21-.72,2.37-.95,3.59-.86,4.45-2.66,8.66-3.11,13.23-.13,1.26-1.42,2.4-2.51,4.11-.14-.64-.28-1.26-.42-1.88l-2.97.28c.17.58-.08.97-1.09,1.07-1.15.11-2.32.02-3.48.02-3.64,0-7.3-.17-10.93.05-3.34.2-6.65.81-10.59,1.32h-1.97v.77c0,1.64-.76,3.28-1.26,5.31-1.02-2.62-1.99-4.73-2.66-6.94-1.72-5.62-3.53-11.21-5.05-16.9-1.48-5.58-3.27-11.04-4.15-16.81-.51-3.38-1.08-6.83-1.88-10.18-1.04-4.35-1.3-8.83-2.16-13.14-1.29-6.42-.19-12.74-1.01-20.05,1.11,1.03,1.61,1.47,2.08,1.93.6.58,1.11,1.29,1.78,1.75,1.86,1.24,2.35,3.76,5.13,4.39,1.96.44,3.41,2.84,5.34,3.93.66.37,2.04.58,2.91.47,2.06-.26,3.32.75,4.79,1.99-.94-2.94-.45-6.44-3.7-8.24-1.23-.68-.93-2.35-2.68-2.99-1.57-.58.47-1.71,1.05-2.68.35.7.89,1.91.96,1.91,2.24-.9,2.27,2.36,4.09,2.14.55,2.36,3,2.28,4.56,3.54-.14.73-.13,1.58-.47,2.27-1.65,3.46-1.99,7.23-2.55,10.92-.38,2.51-.07,5.05-.95,7.61-.82,2.35.4,5.07-1.01,7.6-.64,1.15.02,2.96-.15,4.44-.01.05-.01.09-.02.14l1.16.16c.24-1.07,2.25-.63,2.41-1.7,1.56,2.58,3.01-.57,4.7-.11,1.71.46,3.63.1,5.47.1h9.45c-.3-1.21-.59-2.19-.79-3.18-.17-.78-.28-1.57-.33-2.36-.35-5.53-.53-11.06-1.06-16.57-.32-3.26-1.92-6.18-3.56-9-.15-.27-.26-.56-.39-.84,1.24-3.06,4.47-3.89,6.68-6.09,1.19,2.19,3.55,3.81,1.46,6.85-.52.75.67,2.69,1.22,4.61.2-1.89.36-2.61.44-2.88-.11.16-.23.31-.35.46l-.45-.45c.2-.15.39-.31.58-.47,4.77-2.25,9.47-7.54,14.26-12.91.05.92.14,2.01.15,3.1.03,2.5.01,4.99.01,7.49v4.5c0,1.5.1,3-.03,4.49-.13,1.56.72,3.34-.85,4.64,1.44,1.25-.46,2.33-.19,3.63Zm1.26-38.5c-.78,1.72-.26,4.03-1.15,6.01-1.09,2.43-1.94,4.92-3.89,6.89-1.34,1.35-2.29,3.07-3.59,4.47-1.07,1.14-1.94,2.94-4.14,1.91-2.16-6.78-8.52-15.19-15.62-16.16,2.24-1.86,4.27-3.55,6.31-5.23.23-.19.55-.28.83-.41,1.48-.7,2.67.95,4.31.39,1.22-.41,2.5-.94,4.1-.7,2.32.34,4.37-1.3,6.11-2.74,2.17-1.79,4.04-3.95,6.1-6,.48.64,1.42,1.33,1.37,1.92-.31,3.19.73,6.4-.74,9.65Zm14.65,719.65c.01.2.02.41.03.62-1.22.08-2.45.16-3.67.25-.01-.29-.01-.58-.02-.87h3.66Zm-.06,16.77c.02.3.03.6.05.9h-2.66c-.01-.18-.03-.35-.04-.53.88-.12,1.77-.24,2.65-.37Zm-2.78-5.19v-.5h2v.5h-2Zm2.5,11.25c.11.11.22.22.36.36-.12.21-.24.42-.36.64-.11-.11-.33-.25-.31-.33.05-.23.2-.45.31-.67Zm-4.85,10.86c-.21-.12-.43-.24-.65-.36.11-.11.25-.33.33-.31.24.05.45.2.67.31-.11.11-.22.22-.35.36Zm.56,5.2c-.01-.3-.01-.59-.02-.89h2.66c.01.18.02.35.04.53-.89.12-1.79.24-2.68.36Zm4.79-9.31h-2v-.5h2v.5Zm3-602h-2v-.5h2v.5Zm24.99-2.11c-.25,5.23-1.44,10.28-2.96,15.27-.71,2.34-2.79,3.25-4.54,3.94-3.82,1.53-8.81-.89-10.84-4.7-.5-.93-1.02-1.85-1.52-2.77,2.04,1,3.66,2.49,5.83,3.05.87.23,1.95.65,2.67.35,2.88-1.23,5.09-3.4,6.26-6.27.75-1.86.85-4.01,1.09-6.04.3-2.53,1.51-4.91,1.06-7.59-.42-2.47-1.12-4.85-1.8-7.25-.85-2.95-2.7-4.75-5.55-6.16,2.77-1.17,4.75-.04,6.49,1.29,1.68,1.27,2.7,3.04,2.86,5.3.14,1.87.77,3.71.92,5.59.17,1.98.12,4,.03,5.99Zm2.98-68.6c-2.97,1.11-6.09,1.32-9.12,2-3.05.69-6.22.62-9.22,1.74-1.31.48-2.92.11-4.39.24-1.34.11-2.66.37-4.31.61.86-2.21,1.56-4.52,2.66-6.63.77-1.48,2.24-1.95,4.1-2.09,5.96-.43,12-.53,17.73-2.74,1.15-.44,2.6-.07,4.18-.07.46.84.94,1.47,1.17,2.19.89,2.77.22,3.62-2.8,4.75Zm5.83,104.92c-.37-.23-.76-.37-.76-.49.03-.44.19-.88.3-1.31.22.12.62.24.63.38.02.43-.09.88-.17,1.42Zm1.87-3.15c-.23-.05-.45-.2-.67-.31.11-.11.22-.22.36-.36.21.12.42.24.64.36-.11.11-.24.33-.33.31Zm3.93,9.08c-.21-.12-.4-.29-.6-.44l.23-.23c-.06-.07-.14-.14-.23-.22-.1-.1-.2-.2-.31-.37-.33-.27-.51-.45-.69-.63-.33-.38-.72-.74-.96-1.17-.08-.14.24-.49.62-1.2.47,1.88.78,2.62,1.03,3,.16.14.37.3.63.5.04-.04.09-.09.13-.13.16.19.31.39.47.58-.23-.17-.43-.32-.6-.45-.03.03-.06.06-.09.09.54.52.41.69.37.67Zm-2.45-8.25c.11-.2.23-.42.35-.64.11.11.33.25.31.33-.05.23-.2.45-.31.67-.11-.11-.22-.22-.35-.36Zm-3.85-51.85c.65-2.95,1.27-5.77,2-9.02,1.69,4.17,3.22,7.97,5.03,12.44q-5.32-1.78-7.03-3.42Zm8.03,55.4c.24.05.45.2.67.31-.11.11-.22.22-.35.36-.21-.12-.43-.24-.65-.36.11-.11.25-.33.33-.31Zm2.12,2.81s-.04-.04-.06-.06c-.38,1.68-.65,2.48-2.32,1.78.52-.8.98-1.51,1.88-2.9.24.12.43.22.57.31.02-.02.04-.03.06-.05-.01.02-.01.05-.02.07.26.15.34.22.33.25-.12.22-.29.4-.44.6Zm3.15,5.89c-.21-.12-.4-.29-.6-.44l.11-.11c-.15-.1-.32-.21-.55-.34h.27c-.53-.32-.63-.45-.74-.59.21-.06.56-.23.61-.17.16.21.21.5.3.76h-.17c.11.06.24.13.4.22.07-.07.15-.15.22-.22.16.19.31.39.47.58-.27-.14-.5-.26-.69-.36-.04.04-.07.07-.11.12.62.43.51.57.48.55Zm-.25-3.77c-.42.2-.9.26-1.35.38.11-.44.08-1.02.35-1.27.26-.22.84-.11,1.27-.09.12.01.23.21.34.32-.19.23-.36.55-.61.66Z"/>
      <path class="cls-2" d="m198,879.43h2v.5h-2v-.5Z"/>
      <path class="cls-2" d="m108.37,895.84c-1.06.15-1.71.25-2.37.34.39-.33.74-.72,1.17-.97.13-.08.49.24,1.19.63Z"/>
      <path class="cls-2" d="m201,897.93h-2v-.5h2v.5Z"/>
      <path class="cls-2" d="m100,951.43h2v.5h-2v-.5Z"/>
      <path class="cls-2" d="m144.36,241.32c.21.12.43.24.64.36-.11.11-.25.33-.33.31-.24-.05-.45-.2-.67-.31.11-.11.22-.22.36-.36Z"/>
      <path class="cls-2" d="m239.36,326.32c.21.12.43.24.64.36-.11.11-.25.33-.33.31-.24-.05-.45-.2-.67-.31.11-.11.22-.22.36-.36Z"/>
      <path class="cls-2" d="m241.15,327.82c.12-.21.24-.43.36-.64.11.11.33.25.31.33-.05.24-.2.45-.31.67-.11-.11-.22-.22-.36-.36Z"/>
      <path class="cls-2" d="m86.15,331.82c.12-.21.24-.43.36-.64.11.11.33.25.31.33-.05.24-.2.45-.31.67-.11-.11-.22-.22-.36-.36Z"/>
      <path class="cls-2" d="m245.65,332.03c-.21-.12-.43-.24-.64-.36.11-.11.25-.33.33-.31.24.05.45.2.67.31-.11.11-.22.22-.36.36Z"/>
      <path class="cls-2" d="m247.58,333.26c.12.12.33.28.31.32-.12.22-.29.4-.44.6-.15-.15-.3-.3-.45-.45.19-.16.39-.32.58-.47Z"/>
      <path class="cls-2" d="m242,334.18c.33.33.67.67,1,1-.33-.33-.67-.67-1-1Z"/>
      <path class="cls-2" d="m243.92,335.76c-.12.12-.28.33-.32.31-.22-.12-.4-.29-.6-.44.15-.15.3-.3.45-.45.16.19.32.39.47.58Z"/>
      <path class="cls-2" d="m249.56,339.18c-.15-.2-.31-.39-.46-.59.21-.06.56-.23.61-.17.16.21.21.5.3.76-.15,0-.3,0-.45,0Z"/>
      <path class="cls-2" d="m250.92,339.76c-.12.12-.28.33-.32.31-.22-.12-.4-.29-.6-.44.15-.15.3-.3.45-.45.16.19.32.39.47.58Z"/>
      <path class="cls-2" d="m57.15,354.82c.12-.21.24-.43.36-.64.11.11.33.25.31.33-.05.24-.2.45-.31.67-.11-.11-.22-.22-.36-.36Z"/>
      <path class="cls-2" d="m45.86,355.53c-.12.21-.24.43-.36.64-.11-.11-.33-.25-.31-.33.05-.24.2-.45.31-.67.11.11.22.22.36.36Z"/>
      <path class="cls-2" d="m45.58,358.26c.12.12.33.28.31.32-.12.22-.29.4-.44.6-.15-.15-.3-.3-.45-.45.19-.16.39-.32.58-.47Z"/>
      <path class="cls-2" d="m58.5,360.18c.11.22.26.44.31.67.02.08-.2.22-.31.33-.11-.22-.26-.44-.31-.67-.02-.08.2-.22.31-.33Z"/>
      <path class="cls-2" d="m171.58,172.26c.12.12.33.28.31.32-.12.22-.29.4-.44.6l-.45-.45c.19-.16.39-.32.58-.47Z"/>
      <path class="cls-2" d="m200.86,891.53c-.12.21-.24.43-.36.64-.11-.11-.33-.25-.31-.33.05-.24.2-.45.31-.67.11.11.22.22.36.36Z"/>
      <path class="cls-2" d="m106,896.62c-.2.15-.39.31-.59.46-.06-.21-.23-.56-.17-.61.21-.16.5-.21.76-.3,0,.15,0,.3,0,.45Z"/>
      <path class="cls-2" d="m195.65,902.03c-.21-.12-.43-.24-.64-.36.11-.11.25-.33.33-.31.24.05.45.2.67.31-.11.11-.22.22-.36.36Z"/>
      <path class="cls-1" d="m200.58,287.26c.12.12.33.28.31.32-.12.22-.29.4-.44.6-.15-.15-.3-.3-.45-.45.19-.16.39-.32.58-.47Z"/>
      <path class="cls-1" d="m111.99,310.38c.97-.05,1.94-.09,2.92-.14.02.22.04.45.06.67-.98.13-1.96.26-2.95.39-.01-.31-.02-.61-.03-.92Z"/>
      <path class="cls-1" d="m120,301.43h2v.5h-2v-.5Z"/>
      <path class="cls-1" d="m188.16,114.76c-.35,1.22-.52,1.82-.69,2.42-.16-.47-.36-.92-.43-1.4-.02-.14.36-.34,1.12-1.02Z"/>
      <path class="cls-1" d="m186,118.18l-1,1,1-1Z"/>
      <path class="cls-1" d="m186,118.18l1-1-1,1Z"/>
      <path class="cls-1" d="m79.45,344.05c.89,1.77,1.63,3.25,2.39,4.76-.73.59-1.43.86-1.87-.61-.37-1.26-1.7-2.32-.53-4.15Z"/>
    </g>
  </g>
</svg>