<?xml version="1.0" encoding="utf-8"?>
<!-- Generator: Adobe Illustrator 26.0.2, SVG Export Plug-In . SVG Version: 6.00 Build 0)  -->
<svg version="1.1" id="Layer_1" xmlns="http://www.w3.org/2000/svg" xmlns:xlink="http://www.w3.org/1999/xlink" x="0px" y="0px"
	 viewBox="0 0 194.96 24" style="enable-background:new 0 0 194.96 24;" xml:space="preserve">
<style type="text/css">
	.st0{fill:#D33A2C;}
	.st1{fill:#FFFFFF;}
</style>
<g>
	<path d="M40.31,5.16v13.51h-3.29V13.1H31.9v5.56h-3.29V5.16h3.29v5.29h5.12V5.16H40.31z"/>
	<path d="M51.74,14.08h-7.45c0.05,0.67,0.27,1.18,0.64,1.53c0.38,0.35,0.84,0.53,1.4,0.53c0.82,0,1.39-0.35,1.71-1.04h3.5
		c-0.18,0.71-0.5,1.34-0.97,1.9c-0.47,0.57-1.06,1.01-1.76,1.33c-0.71,0.32-1.49,0.48-2.37,0.48c-1.05,0-1.99-0.22-2.81-0.67
		c-0.82-0.45-1.46-1.09-1.92-1.92s-0.69-1.81-0.69-2.92s0.23-2.09,0.68-2.93c0.46-0.83,1.09-1.47,1.91-1.92s1.76-0.67,2.83-0.67
		c1.04,0,1.96,0.22,2.77,0.65c0.81,0.44,1.44,1.06,1.9,1.87c0.46,0.81,0.68,1.75,0.68,2.83C51.8,13.43,51.78,13.75,51.74,14.08z
		 M48.43,12.26c0-0.56-0.19-1.01-0.58-1.35c-0.38-0.33-0.87-0.5-1.44-0.5c-0.55,0-1.02,0.16-1.4,0.48c-0.38,0.32-0.61,0.78-0.7,1.37
		H48.43z"/>
	<path d="M52.77,6.3c-0.37-0.34-0.55-0.76-0.55-1.26c0-0.51,0.18-0.94,0.55-1.28c0.37-0.34,0.84-0.51,1.41-0.51
		c0.56,0,1.03,0.17,1.4,0.51c0.37,0.34,0.55,0.77,0.55,1.28c0,0.5-0.18,0.92-0.55,1.26c-0.37,0.34-0.83,0.51-1.4,0.51
		C53.61,6.81,53.14,6.64,52.77,6.3z M55.82,7.93v10.74h-3.29V7.93H55.82z"/>
	<path d="M63.28,8.23c0.57,0.31,1.01,0.71,1.32,1.21V7.93h3.29v10.72c0,0.99-0.2,1.88-0.59,2.68s-0.99,1.44-1.79,1.91
		s-1.8,0.71-2.99,0.71c-1.59,0-2.88-0.38-3.87-1.12c-0.99-0.75-1.55-1.77-1.69-3.05h3.25c0.1,0.41,0.35,0.73,0.73,0.97
		s0.86,0.36,1.42,0.36c0.68,0,1.22-0.2,1.63-0.59c0.4-0.39,0.61-1.02,0.61-1.88v-1.52c-0.32,0.5-0.76,0.91-1.33,1.22
		c-0.56,0.31-1.23,0.47-1.98,0.47c-0.89,0-1.69-0.23-2.41-0.68c-0.72-0.46-1.29-1.1-1.7-1.94c-0.42-0.84-0.63-1.81-0.63-2.92
		s0.21-2.07,0.63-2.91c0.42-0.83,0.98-1.47,1.7-1.92C59.6,8,60.4,7.77,61.28,7.77C62.04,7.77,62.7,7.93,63.28,8.23z M63.91,11.35
		c-0.46-0.47-1.01-0.71-1.66-0.71s-1.21,0.23-1.66,0.7c-0.46,0.47-0.68,1.11-0.68,1.93c0,0.82,0.23,1.47,0.68,1.95
		c0.46,0.48,1.01,0.72,1.66,0.72s1.21-0.24,1.66-0.71c0.46-0.47,0.68-1.12,0.68-1.94C64.59,12.47,64.37,11.83,63.91,11.35z"/>
	<path d="M78.83,9.03c0.74,0.81,1.12,1.93,1.12,3.36v6.27h-3.27v-5.83c0-0.72-0.19-1.28-0.56-1.67c-0.37-0.4-0.87-0.6-1.5-0.6
		s-1.13,0.2-1.5,0.6c-0.37,0.4-0.56,0.96-0.56,1.67v5.83h-3.29V4.42h3.29v4.94c0.33-0.47,0.79-0.85,1.37-1.13
		c0.58-0.28,1.22-0.42,1.94-0.42C77.1,7.81,78.09,8.22,78.83,9.03z"/>
	<path d="M87.22,15.87v2.79h-1.67c-1.19,0-2.12-0.29-2.79-0.88c-0.67-0.58-1-1.54-1-2.86v-4.27h-1.31V7.93h1.31V5.31h3.29v2.62h2.16
		v2.73h-2.16v4.31c0,0.32,0.08,0.55,0.23,0.69c0.15,0.14,0.41,0.21,0.77,0.21H87.22z"/>
	<path d="M88.64,8.38c0.58-1.05,1.37-1.86,2.37-2.44c1-0.58,2.12-0.88,3.35-0.88c1.5,0,2.79,0.36,3.86,1.07s1.85,1.72,2.34,3.01
		h-1.58C98.59,8.23,98.01,7.52,97.22,7c-0.79-0.51-1.74-0.77-2.86-0.77c-0.99,0-1.88,0.23-2.67,0.69c-0.79,0.46-1.41,1.12-1.86,1.99
		s-0.67,1.87-0.67,3.01c0,1.14,0.22,2.14,0.67,3c0.45,0.86,1.07,1.52,1.86,1.98c0.79,0.46,1.68,0.69,2.67,0.69
		c1.12,0,2.07-0.25,2.86-0.76c0.79-0.51,1.38-1.21,1.76-2.11h1.58c-0.49,1.28-1.27,2.28-2.35,2.98c-1.08,0.71-2.36,1.06-3.85,1.06
		c-1.23,0-2.35-0.29-3.35-0.88s-1.79-1.4-2.37-2.43c-0.58-1.04-0.87-2.22-0.87-3.54C87.78,10.61,88.07,9.42,88.64,8.38z"/>
	<path d="M104.16,18.15c-0.79-0.44-1.41-1.07-1.87-1.89s-0.68-1.77-0.68-2.86c0-1.09,0.23-2.04,0.69-2.86s1.09-1.44,1.89-1.89
		c0.79-0.44,1.69-0.66,2.67-0.66c0.99,0,1.88,0.22,2.68,0.66c0.8,0.44,1.43,1.07,1.88,1.89c0.46,0.81,0.68,1.77,0.68,2.86
		c0,1.08-0.23,2.03-0.69,2.85c-0.46,0.82-1.1,1.45-1.91,1.9s-1.71,0.66-2.69,0.66C105.84,18.82,104.95,18.6,104.16,18.15z
		 M108.75,17.17c0.59-0.31,1.07-0.79,1.43-1.42c0.37-0.63,0.55-1.41,0.55-2.34s-0.18-1.7-0.54-2.34c-0.36-0.63-0.83-1.11-1.42-1.42
		c-0.59-0.31-1.23-0.47-1.92-0.47s-1.33,0.16-1.92,0.47c-0.59,0.31-1.06,0.79-1.41,1.42c-0.35,0.63-0.53,1.41-0.53,2.34
		s0.18,1.7,0.53,2.34c0.35,0.63,0.82,1.11,1.4,1.42s1.22,0.47,1.91,0.47C107.52,17.64,108.16,17.49,108.75,17.17z"/>
	<path d="M129.1,9.13c0.78,0.78,1.16,1.9,1.16,3.38v6.16h-1.33v-6c0-1.14-0.28-2.01-0.83-2.62c-0.55-0.6-1.3-0.9-2.25-0.9
		c-0.99,0-1.78,0.33-2.37,0.98c-0.59,0.65-0.89,1.6-0.89,2.85v5.7h-1.33v-6c0-1.14-0.28-2.01-0.83-2.62c-0.55-0.6-1.31-0.9-2.27-0.9
		c-0.99,0-1.78,0.33-2.37,0.98s-0.88,1.6-0.88,2.85v5.7h-1.35V8.16h1.35v1.81c0.33-0.65,0.81-1.15,1.42-1.49
		c0.62-0.34,1.3-0.51,2.06-0.51c0.91,0,1.71,0.22,2.4,0.65s1.18,1.08,1.49,1.92c0.28-0.83,0.77-1.47,1.45-1.91
		c0.69-0.44,1.46-0.66,2.34-0.66C127.32,7.96,128.32,8.35,129.1,9.13z"/>
	<path d="M135.16,8.71c0.72-0.47,1.59-0.7,2.59-0.7c0.95,0,1.8,0.22,2.57,0.66c0.76,0.44,1.36,1.07,1.79,1.89s0.64,1.76,0.64,2.84
		c0,1.08-0.21,2.03-0.64,2.85c-0.43,0.82-1.03,1.46-1.79,1.91c-0.76,0.45-1.62,0.67-2.57,0.67c-0.99,0-1.85-0.23-2.58-0.7
		c-0.73-0.47-1.26-1.05-1.6-1.76v7.27h-1.33V8.16h1.33v2.31C133.91,9.76,134.44,9.17,135.16,8.71z M140.88,11.13
		c-0.34-0.63-0.8-1.12-1.39-1.45c-0.59-0.33-1.26-0.5-2-0.5c-0.72,0-1.38,0.17-1.97,0.52s-1.07,0.84-1.41,1.48
		c-0.35,0.64-0.52,1.39-0.52,2.23s0.17,1.59,0.52,2.23s0.82,1.13,1.41,1.48c0.6,0.35,1.25,0.52,1.97,0.52c0.74,0,1.41-0.17,2-0.51
		s1.05-0.83,1.39-1.48c0.34-0.65,0.51-1.4,0.51-2.26C141.39,12.52,141.22,11.77,140.88,11.13z"/>
	<path d="M144.26,10.55c0.43-0.81,1.03-1.44,1.79-1.89c0.76-0.44,1.63-0.66,2.59-0.66c1,0,1.86,0.23,2.59,0.69
		c0.72,0.46,1.25,1.05,1.57,1.77V8.16h1.35v10.51h-1.35v-2.33c-0.33,0.72-0.86,1.31-1.59,1.78c-0.72,0.47-1.59,0.7-2.59,0.7
		c-0.95,0-1.81-0.22-2.57-0.67c-0.76-0.45-1.36-1.08-1.79-1.91c-0.43-0.82-0.64-1.77-0.64-2.85
		C143.62,12.31,143.83,11.37,144.26,10.55z M152.28,11.18c-0.35-0.64-0.82-1.13-1.41-1.48s-1.25-0.52-1.97-0.52
		c-0.74,0-1.41,0.17-2,0.5c-0.59,0.33-1.05,0.82-1.39,1.45c-0.34,0.64-0.51,1.39-0.51,2.26c0,0.86,0.17,1.61,0.51,2.26
		c0.34,0.65,0.8,1.14,1.39,1.48s1.26,0.51,2,0.51c0.72,0,1.38-0.17,1.97-0.52c0.6-0.35,1.07-0.84,1.41-1.48
		c0.35-0.64,0.52-1.39,0.52-2.23S152.62,11.82,152.28,11.18z"/>
	<path d="M158.93,8.5c0.61-0.36,1.36-0.54,2.24-0.54v1.4h-0.37c-0.98,0-1.76,0.26-2.35,0.79c-0.59,0.53-0.88,1.4-0.88,2.64v5.87
		h-1.35V8.16h1.35v1.87C157.86,9.37,158.32,8.86,158.93,8.5z"/>
	<path d="M162.17,5.89c-0.19-0.19-0.29-0.43-0.29-0.71s0.1-0.52,0.29-0.7c0.19-0.19,0.42-0.28,0.69-0.28s0.5,0.09,0.69,0.28
		c0.19,0.19,0.29,0.42,0.29,0.7s-0.1,0.52-0.29,0.71s-0.42,0.29-0.69,0.29S162.36,6.08,162.17,5.89z M163.53,8.16v10.51h-1.35V8.16
		H163.53z"/>
	<path d="M166.26,17.98c-0.76-0.56-1.19-1.32-1.28-2.28h1.38c0.06,0.59,0.34,1.07,0.84,1.43c0.49,0.37,1.16,0.55,1.99,0.55
		c0.73,0,1.3-0.17,1.72-0.52s0.63-0.78,0.63-1.29c0-0.36-0.12-0.65-0.35-0.88c-0.23-0.23-0.52-0.41-0.88-0.55
		c-0.35-0.13-0.83-0.28-1.43-0.43c-0.78-0.21-1.42-0.41-1.91-0.62s-0.9-0.51-1.24-0.91s-0.51-0.95-0.51-1.62
		c0-0.51,0.15-0.99,0.46-1.42c0.31-0.44,0.74-0.78,1.31-1.04C167.56,8.13,168.2,8,168.92,8c1.13,0,2.04,0.29,2.73,0.86
		s1.06,1.36,1.12,2.36h-1.35c-0.04-0.62-0.28-1.11-0.72-1.49c-0.44-0.38-1.05-0.57-1.82-0.57c-0.68,0-1.23,0.16-1.66,0.48
		c-0.42,0.32-0.63,0.72-0.63,1.19c0,0.41,0.12,0.75,0.38,1.01c0.25,0.26,0.56,0.47,0.93,0.62c0.37,0.15,0.87,0.31,1.5,0.49
		c0.76,0.21,1.36,0.4,1.81,0.6c0.45,0.19,0.83,0.47,1.15,0.85c0.32,0.37,0.49,0.87,0.5,1.48c0,0.56-0.15,1.07-0.46,1.51
		c-0.31,0.44-0.74,0.79-1.29,1.05c-0.55,0.26-1.19,0.38-1.9,0.38C168,18.82,167.02,18.54,166.26,17.98z"/>
	<path d="M176.34,18.15c-0.79-0.44-1.41-1.07-1.87-1.89s-0.68-1.77-0.68-2.86c0-1.09,0.23-2.04,0.69-2.86s1.09-1.44,1.89-1.89
		c0.79-0.44,1.69-0.66,2.67-0.66c0.99,0,1.88,0.22,2.68,0.66c0.8,0.44,1.43,1.07,1.88,1.89c0.46,0.81,0.68,1.77,0.68,2.86
		c0,1.08-0.23,2.03-0.69,2.85c-0.46,0.82-1.1,1.45-1.91,1.9s-1.71,0.66-2.69,0.66C178.02,18.82,177.13,18.6,176.34,18.15z
		 M180.93,17.17c0.59-0.31,1.07-0.79,1.43-1.42c0.37-0.63,0.55-1.41,0.55-2.34s-0.18-1.7-0.54-2.34c-0.36-0.63-0.83-1.11-1.42-1.42
		c-0.59-0.31-1.23-0.47-1.92-0.47s-1.33,0.16-1.92,0.47c-0.59,0.31-1.06,0.79-1.41,1.42c-0.35,0.63-0.53,1.41-0.53,2.34
		s0.18,1.7,0.53,2.34c0.35,0.63,0.82,1.11,1.4,1.42s1.22,0.47,1.91,0.47C179.7,17.64,180.34,17.49,180.93,17.17z"/>
	<path d="M193.76,9.13c0.79,0.78,1.19,1.9,1.19,3.38v6.16h-1.33v-6c0-1.14-0.29-2.01-0.86-2.62c-0.57-0.6-1.35-0.9-2.34-0.9
		c-1.01,0-1.82,0.32-2.42,0.96c-0.6,0.64-0.9,1.58-0.9,2.83v5.73h-1.35V8.16h1.35v1.79c0.33-0.64,0.81-1.13,1.44-1.47
		c0.63-0.34,1.34-0.51,2.14-0.51C191.94,7.96,192.97,8.35,193.76,9.13z"/>
</g>
<g>
	<g>
		<polygon class="st0" points="24,0 24,24 12,24 12,13.71 8.57,13.71 8.57,24 6.86,24 6.86,3.43 3.43,3.43 3.43,24 0,24 0,0 		"/>
	</g>
	<g>
		<rect x="3.43" y="3.43" class="st1" width="3.43" height="20.57"/>
	</g>
	<g>
		<rect x="8.57" y="13.71" class="st1" width="3.43" height="10.29"/>
	</g>
	<g>
		<rect x="3.43" y="3.43" class="st1" width="3.43" height="20.57"/>
	</g>
	<g>
		<rect x="8.57" y="13.71" class="st1" width="3.43" height="10.29"/>
	</g>
</g>
</svg>
